<svg id="Camada_1" data-name="Camada 1" xmlns="http://www.w3.org/2000/svg" xmlns:xlink="http://www.w3.org/1999/xlink" viewBox="0 0 1919.11 1428.31"><defs><style>.cls-1{fill:none;clip-rule:evenodd;}.cls-2{fill:#fff;}.cls-3{opacity:0.43;}.cls-4{fill:#1f92ff;}.cls-5{fill:#359dff;}.cls-6{fill:#4ca8ff;}.cls-7{fill:#62b3ff;}.cls-8{fill:#79beff;}.cls-9{fill:#8fc9ff;}.cls-10{fill:#a5d3ff;}.cls-11{fill:#bcdeff;}.cls-12{fill:#d2e9ff;}.cls-13{fill:#e9f4ff;}.cls-14{fill:url(#Gradiente_sem_nome_20);}.cls-15{fill:url(#Gradiente_sem_nome_20-2);}.cls-16{fill:url(#Gradiente_sem_nome_20-3);}.cls-17{fill:url(#Gradiente_sem_nome_20-4);}.cls-18{fill:url(#Gradiente_sem_nome_20-5);}.cls-19{clip-path:url(#clip-path);}.cls-20{fill:url(#Gradiente_sem_nome_12);}.cls-21{clip-path:url(#clip-path-2);}.cls-22{fill:url(#Gradiente_sem_nome_3);}.cls-23{clip-path:url(#clip-path-3);}.cls-24{opacity:0.17;fill:url(#Gradiente_sem_nome_12-2);}.cls-25{font-size:50.52px;fill:#606060;font-family:UniNeueBook, Uni Neue;}.cls-26{letter-spacing:0em;}.cls-27{letter-spacing:-0.01em;}.cls-28{letter-spacing:-0.02em;}</style><linearGradient id="Gradiente_sem_nome_20" x1="804.79" y1="596.11" x2="844.29" y2="596.11" gradientUnits="userSpaceOnUse"><stop offset="0" stop-color="#1f92ff"/><stop offset="0.24" stop-color="#2293ff"/><stop offset="0.38" stop-color="#2a97ff"/><stop offset="0.5" stop-color="#389eff"/><stop offset="0.6" stop-color="#4ca8ff"/><stop offset="0.69" stop-color="#67b5ff"/><stop offset="0.78" stop-color="#87c5ff"/><stop offset="0.86" stop-color="#add7ff"/><stop offset="0.94" stop-color="#d9ecff"/><stop offset="1" stop-color="#fff"/></linearGradient><linearGradient id="Gradiente_sem_nome_20-2" x1="925.66" y1="596.11" x2="970.23" y2="596.11" xlink:href="#Gradiente_sem_nome_20"/><linearGradient id="Gradiente_sem_nome_20-3" x1="965.74" y1="596.11" x2="1011.02" y2="596.11" xlink:href="#Gradiente_sem_nome_20"/><linearGradient id="Gradiente_sem_nome_20-4" x1="1003.78" y1="596.11" x2="1043.28" y2="596.11" xlink:href="#Gradiente_sem_nome_20"/><linearGradient id="Gradiente_sem_nome_20-5" x1="1030.64" y1="596.11" x2="1086" y2="596.11" xlink:href="#Gradiente_sem_nome_20"/><clipPath id="clip-path"><path class="cls-1" d="M806.15,798.61c9.37,43.33,39.65,62.9,75.29,61.37-38.5-7.84-56.23-32.63-53.6-67.72,6.77-30.12,30.79-48.8,63.47-46.93,57.86,7.35,118.33,53,173.89,44.64,48.77-9.85,67.7-72.8,26.66-103.87-10.81-8.17-26.34-13.6-40.19-13.05,27.36,5,44.1,25.36,38,52.33-9.46,26.47-32.46,37.19-73.24,22.82C973.6,735.39,935.35,710.78,888,709.78c-53.77-1.61-90.84,42.05-81.81,88.83"/></clipPath><linearGradient id="Gradiente_sem_nome_12" x1="863.76" y1="753.86" x2="1082.06" y2="782.21" gradientUnits="userSpaceOnUse"><stop offset="0" stop-color="#1f92ff"/><stop offset="1" stop-color="#ff3dc7"/></linearGradient><clipPath id="clip-path-2"><path class="cls-1" d="M859.66,750.94c-22.56,19.52-20.1,44.79.28,59,17.07,9,32.56,5.84,48.46-5.43,15.94-13.44,29.23-28.07,41.26-43.26a381.7,381.7,0,0,1,51-62.34c12.57-11.29,29.05-24.47,51.9-25.74,26.83,5.31,43.13,25.48,37.09,52.16C1085.89,736,1080,744,1071.59,749c9.67-10,9.49-21.62,6.45-29s-12.1-19.15-29.72-13.79c-18.85,5.82-29.88,21.79-41.74,39.2-17.27,28.35-48,76.88-74.72,96.38-15.51,11.33-31.69,18.2-49,19.2l-3.76-.92c.78,0,1.56,0,2.35-.07-38.5-7.84-56.23-32.63-53.6-67.72,4.32-19.22,15.67-33.78,31.82-41.32"/></clipPath><linearGradient id="Gradiente_sem_nome_3" x1="1055.62" y1="676.36" x2="858.57" y2="864.24" gradientUnits="userSpaceOnUse"><stop offset="0" stop-color="#d72aae"/><stop offset="0.17" stop-color="#ff3dc7"/><stop offset="1" stop-color="#ffc502"/></linearGradient><clipPath id="clip-path-3"><path class="cls-1" d="M949.24,761.82l.42-.52c6.71-10.14,13.9-20.1,21.7-29.85,11.73,4.75,23.43,9.57,35.41,13.65l-.19.29c-5.42,8.89-12.15,19.76-19.67,31.09-12.52-4.64-25.09-9.83-37.67-14.66"/></clipPath><linearGradient id="Gradiente_sem_nome_12-2" x1="961.67" y1="747.69" x2="1006.52" y2="764.91" xlink:href="#Gradiente_sem_nome_12"/></defs><rect class="cls-2" y="-12.55" width="1920.3" height="1453.42"/><g class="cls-3"><path class="cls-4" d="M897.22,568.35c.52,0,.61.09.61.61v54.3c0,.52-.09.61-.61.61H885c-.52,0-.61-.09-.61-.61v-5.87c0-8.11.3-16.89.88-26.09l.06-.87-.86-.17-.4-.08-.84-.17-.3.8c-1.48,4-3.94,9.84-7.29,17.23l-1.36,3a.93.93,0,0,1-.95.63h-9a.92.92,0,0,1-.94-.62l-1.36-3c-3.36-7.42-5.82-13.21-7.3-17.24l-.29-.8-.84.17-.4.08-.86.17,0,.87c.59,9.22.89,18,.89,26.09v5.87c0,.52-.09.61-.61.61H806.4c-.52,0-.61-.09-.61-.61V569c0-.52.09-.61.61-.61h47.78a.93.93,0,0,1,1,.65l5.15,10.38c2.39,4.78,4.9,10.52,7.45,17l.24.64h1.69l.25-.64c2.55-6.54,5.06-12.28,7.45-17l5.16-10.4a.91.91,0,0,1,.94-.63h13.76m-77.74,21.56h18.7a1.06,1.06,0,0,1,.35.05l1.28.37v-9.9H819.48v9.48m0,21.88h20.33V601.25l-1.28.36a1.07,1.07,0,0,1-.35.06h-18.7v10.12m77.74-44.44H883.46a1.9,1.9,0,0,0-1.85,1.2l-5.15,10.38q-3.62,7.25-7.48,17.14h-.32q-3.87-9.9-7.48-17.14L856,568.55a1.92,1.92,0,0,0-1.85-1.2H806.4a1.42,1.42,0,0,0-1.61,1.61v54.3a1.43,1.43,0,0,0,1.61,1.61h46.25a1.43,1.43,0,0,0,1.61-1.61v-5.87q0-12.23-.89-26.15l.4-.08q2.25,6.12,7.33,17.3l1.36,3a1.91,1.91,0,0,0,1.85,1.21h9a1.9,1.9,0,0,0,1.85-1.21l1.37-3q5.07-11.19,7.32-17.3l.41.08q-.9,13.92-.89,26.15v5.87a1.43,1.43,0,0,0,1.61,1.61h12.23a1.43,1.43,0,0,0,1.61-1.61V569a1.42,1.42,0,0,0-1.61-1.61Zm-76.74,21.56v-7.48h18.33V589a2,2,0,0,0-.63-.09Zm0,21.88v-8.12h17.7a2.39,2.39,0,0,0,.63-.09v8.21Z"/><path class="cls-4" d="M1111.34,568.35c.52,0,.61.09.61.61v10.86c0,.52-.08.61-.61.61h-21.83v9.48h18.7c.51,0,.61.09.61.61v10.54c0,.51-.1.61-.61.61h-18.7v10.12h23.2c.52,0,.61.09.61.61v10.86c0,.52-.09.61-.61.61h-36.28c-.53,0-.61-.09-.61-.61V595.88l-2,5.8-7.23,21.55c-.2.54-.46.64-.84.64h-15a.75.75,0,0,1-.82-.61l-10.3-30.65-.84-2.51h0l-.49-1.47-2.53-7.52-.23-.68h-17.16v9.48h18.66l.2,0,.44,0v11.07c0,.51-.09.61-.6.61h-18.7v10.12h23.2c.52,0,.61.09.61.61v10.86c0,.52-.09.61-.61.61H995.43a.93.93,0,0,1-1-.59l-8.69-16.65-.28-.54h-5.07v17.17c0,.52-.09.61-.61.61H967.35c-.52,0-.61-.09-.61-.61v-6.43L965,618.66l-.21.22a4.17,4.17,0,0,1-.41.43c-3.23,3-7.9,4.56-13.88,4.56H927.27c-.52,0-.61-.09-.61-.61V569c0-.52.09-.61.61-.61h22.85c5.29,0,9.44,1.38,12.35,4.11a12.83,12.83,0,0,1,2.4,3.11l1.87,3.36V569c0-.52.09-.61.61-.61h20.44c6.55,0,11.7,1.72,15.3,5.11l1.69,1.59V569c0-.52.09-.61.61-.61h40.14c.4,0,.65.1.81.65l6.6,21.8c1.27,4.25,2.67,9.77,4.16,16.43l.18.78h2.08l.18-.78c1.48-6.64,2.88-12.16,4.16-16.42l6.6-21.81c.16-.55.41-.65.81-.65h40.23m-171,21.8h6.87c3.6,0,5.59-1.87,5.59-5.26s-2-5.19-5.59-5.19h-6.87v10.45m40.08,4.5H987c2.6,0,4.44-.55,5.64-1.68s1.8-2.9,1.8-5.27a6.8,6.8,0,0,0-1.84-5.15c-1.21-1.14-3.09-1.72-5.6-1.72h-6.55v13.82m-13.69,3.45V587.75l-1.81,2.49a11,11,0,0,1-3.27,3L960,594.26l1.87.73a13.14,13.14,0,0,1,3.31,1.84l1.61,1.27m38,17V599.56l-1.65,1.42a18.3,18.3,0,0,1-4.11,2.63l-1,.48.58.95,4.32,7.07,1.86,3m-64.43-3h8.72a5.66,5.66,0,0,0,6.07-6.15c0-2.17-.86-5.82-6.63-5.82h-8.16v12m171-44.76h-40.23a1.7,1.7,0,0,0-1.77,1.36l-6.6,21.81q-1.92,6.43-4.18,16.49h-.48q-2.25-10.05-4.18-16.49l-6.6-21.81a1.7,1.7,0,0,0-1.77-1.36h-40.14a1.42,1.42,0,0,0-1.61,1.61v3.77q-5.7-5.37-16-5.38H967.35a1.42,1.42,0,0,0-1.61,1.61v6.12a13.55,13.55,0,0,0-2.59-3.35q-4.67-4.38-13-4.38H927.27a1.42,1.42,0,0,0-1.61,1.61v54.3a1.43,1.43,0,0,0,1.61,1.61h23.25q9.42,0,14.56-4.83c.24-.22.44-.46.66-.69v3.91a1.43,1.43,0,0,0,1.61,1.61h12.47a1.42,1.42,0,0,0,1.61-1.61V607.09h3.46l8.69,16.65a1.9,1.9,0,0,0,1.85,1.13h46.24a1.43,1.43,0,0,0,1.61-1.61V612.4a1.43,1.43,0,0,0-1.61-1.61h-22.2v-8.12h17.7a1.42,1.42,0,0,0,1.6-1.61v-8.13l10.3,30.65a1.77,1.77,0,0,0,1.77,1.29h15a1.77,1.77,0,0,0,1.77-1.29l7.25-21.58v21.26a1.42,1.42,0,0,0,1.61,1.61h36.28a1.43,1.43,0,0,0,1.61-1.61V612.4a1.43,1.43,0,0,0-1.61-1.61h-22.2v-8.12h17.7a1.43,1.43,0,0,0,1.61-1.61V590.52a1.42,1.42,0,0,0-1.61-1.61h-17.7v-7.48h20.83a1.42,1.42,0,0,0,1.61-1.61V569a1.42,1.42,0,0,0-1.61-1.61Zm-170,21.8V580.7h5.87q4.59,0,4.59,4.19t-4.59,4.26Zm78.12-.24v-7.48h15.44l2.53,7.52a2.51,2.51,0,0,0-.27,0Zm-38,4.74V581.83H987c2.26,0,3.89.48,4.91,1.45a5.81,5.81,0,0,1,1.53,4.42q0,3.13-1.49,4.55c-1,.94-2.64,1.4-4.95,1.4ZM965.74,596a14.09,14.09,0,0,0-3.55-2,12.08,12.08,0,0,0,3.55-3.23V596Zm-24.39,15.07v-10h7.16q5.63,0,5.63,4.82a4.67,4.67,0,0,1-5.07,5.15Zm62.43.48-4.33-7.07a19.61,19.61,0,0,0,4.33-2.78v9.85Z"/><path class="cls-5" d="M897.22,574c.56,0,.68.12.68.69V629c0,.57-.12.69-.68.69H885c-.56,0-.68-.12-.68-.69v-5.87c0-8.11.29-16.89.88-26.09l0-.8-.79-.16L884,596l-.77-.16-.28.74c-1.48,4-3.94,9.84-7.29,17.23l-1.36,3a1,1,0,0,1-1,.68h-9a1,1,0,0,1-1-.67l-1.36-3c-3.36-7.41-5.82-13.21-7.3-17.24l-.27-.74-.78.16-.4.08-.79.16.05.8c.58,9.22.88,18,.88,26.09V629c0,.57-.12.69-.68.69H806.4c-.56,0-.68-.12-.68-.69v-54.3c0-.57.12-.69.68-.69h47.78a1,1,0,0,1,1,.7l5.15,10.38c2.39,4.78,4.9,10.52,7.45,17.06l.23.59h1.58l.23-.59c2.55-6.55,5.06-12.29,7.45-17.07l5.16-10.39a1,1,0,0,1,1-.68h13.76m-77.67,21.56h18.63a1.15,1.15,0,0,1,.37.06l1.18.34v-9.73H819.55v9.33m0,21.89h20.18V607.1l-1.18.34a1.18,1.18,0,0,1-.37,0H819.55v10m77.67-44.37H883.46a1.9,1.9,0,0,0-1.85,1.21l-5.15,10.37q-3.62,7.25-7.48,17.14h-.32q-3.87-9.9-7.48-17.14L856,574.31a1.92,1.92,0,0,0-1.85-1.21H806.4a1.43,1.43,0,0,0-1.61,1.61V629a1.42,1.42,0,0,0,1.61,1.61h46.25a1.42,1.42,0,0,0,1.61-1.61v-5.87q0-12.23-.89-26.15l.4-.08q2.25,6.12,7.33,17.3l1.36,3a1.91,1.91,0,0,0,1.85,1.2h9a1.9,1.9,0,0,0,1.85-1.2l1.37-3q5.07-11.19,7.32-17.3l.41.08q-.9,13.92-.89,26.15V629a1.42,1.42,0,0,0,1.61,1.61h12.23a1.42,1.42,0,0,0,1.61-1.61v-54.3a1.43,1.43,0,0,0-1.61-1.61Zm-76.74,21.56v-7.48h18.33v7.57a2.39,2.39,0,0,0-.63-.09Zm0,21.88v-8.12h17.7a2.39,2.39,0,0,0,.63-.09v8.21Z"/><path class="cls-5" d="M1111.34,574c.57,0,.69.12.69.69v10.86c0,.56-.12.68-.69.68h-21.76v9.33h18.63c.56,0,.68.13.68.69v10.54c0,.56-.12.68-.68.68h-18.63v10h23.13c.56,0,.69.12.69.68V629c0,.57-.13.69-.69.69h-36.28c-.56,0-.69-.12-.69-.69V602.09l-1.8,5.37L1066.71,629c-.22.57-.51.69-.91.69h-15a.85.85,0,0,1-.9-.66l-10.29-30.65-.88-2.62h0l-.46-1.37-2.52-7.52-.21-.63h-17v9.33h18.61l.19,0,.51,0v11.14c0,.56-.12.68-.68.68h-18.63v10h23.13c.56,0,.68.12.68.68V629c0,.57-.12.69-.68.69H995.43a1,1,0,0,1-1-.63l-8.69-16.66-.26-.49h-4.94V629c0,.57-.12.69-.69.69H967.35c-.56,0-.68-.12-.68-.69v-6.24l-1.6,1.7-.2.21c-.14.15-.27.3-.42.44-3.24,3-7.93,4.58-13.93,4.58H927.27c-.56,0-.68-.12-.68-.69v-54.3c0-.57.12-.69.68-.69h22.85c5.31,0,9.48,1.39,12.4,4.14a12.82,12.82,0,0,1,2.42,3.13l1.73,3.1v-9.68c0-.57.12-.69.68-.69h20.44c6.57,0,11.74,1.73,15.35,5.14l1.56,1.47v-5.92c0-.57.12-.69.69-.69h40.14c.43,0,.71.12.88.71l6.6,21.8c1.27,4.25,2.67,9.78,4.17,16.43l.16.73h2l.16-.73c1.49-6.63,2.89-12.16,4.17-16.42l6.6-21.81c.17-.59.45-.71.88-.71h40.23M940.42,595.83h6.8c3.56,0,5.51-1.85,5.51-5.19s-2-5.11-5.51-5.11h-6.8v10.3m40.09,4.5H987c2.58,0,4.4-.54,5.59-1.66s1.77-2.87,1.77-5.22a6.74,6.74,0,0,0-1.81-5.09c-1.2-1.13-3.06-1.7-5.55-1.7h-6.47v13.67m-13.84,3.37v-10L965,596a11.3,11.3,0,0,1-3.29,3l-1.58,1,1.73.68a13.23,13.23,0,0,1,3.32,1.85l1.5,1.18m38,16.93V605.48l-1.52,1.31a19.25,19.25,0,0,1-4.12,2.64l-.93.44.53.88,4.33,7.07,1.71,2.81m-64.28-2.84h8.65a5.6,5.6,0,0,0,6-6.07c0-2.63-1.14-5.76-6.56-5.76h-8.09v11.83m170.92-44.69h-40.23a1.7,1.7,0,0,0-1.77,1.37l-6.6,21.8q-1.92,6.43-4.18,16.49h-.48q-2.25-10.05-4.18-16.49l-6.6-21.8a1.7,1.7,0,0,0-1.77-1.37h-40.14a1.42,1.42,0,0,0-1.61,1.61v3.77q-5.7-5.37-16-5.38H967.35a1.43,1.43,0,0,0-1.61,1.61v6.13a13.6,13.6,0,0,0-2.59-3.36q-4.67-4.38-13-4.38H927.27a1.43,1.43,0,0,0-1.61,1.61V629a1.42,1.42,0,0,0,1.61,1.61h23.25q9.42,0,14.56-4.83c.24-.22.44-.46.66-.69V629a1.42,1.42,0,0,0,1.61,1.61h12.47a1.42,1.42,0,0,0,1.61-1.61V612.84h3.46l8.69,16.66a1.91,1.91,0,0,0,1.85,1.12h46.24a1.42,1.42,0,0,0,1.61-1.61V618.15a1.43,1.43,0,0,0-1.61-1.61h-22.2v-8.12h17.7a1.42,1.42,0,0,0,1.6-1.61v-8.13l10.3,30.65a1.77,1.77,0,0,0,1.77,1.29h15a1.77,1.77,0,0,0,1.77-1.29l7.25-21.58V629a1.42,1.42,0,0,0,1.61,1.61h36.28a1.42,1.42,0,0,0,1.61-1.61V618.15a1.43,1.43,0,0,0-1.61-1.61h-22.2v-8.12h17.7a1.43,1.43,0,0,0,1.61-1.61V596.27a1.43,1.43,0,0,0-1.61-1.61h-17.7v-7.48h20.83a1.42,1.42,0,0,0,1.61-1.61V574.71a1.42,1.42,0,0,0-1.61-1.61Zm-170,21.8v-8.45h5.87q4.59,0,4.59,4.19t-4.59,4.26Zm78.12-.24v-7.48h15.44l2.53,7.52a2.51,2.51,0,0,0-.27,0Zm-38,4.75V587.58H987c2.26,0,3.89.48,4.91,1.45a5.81,5.81,0,0,1,1.53,4.42q0,3.13-1.49,4.55T987,599.41Zm-15.69,2.39a13.8,13.8,0,0,0-3.55-2,12.08,12.08,0,0,0,3.55-3.23v5.22Zm-24.39,15.06v-10h7.16q5.63,0,5.63,4.83a4.67,4.67,0,0,1-5.07,5.14Zm62.43.48-4.33-7.07a19.25,19.25,0,0,0,4.33-2.78v9.85Z"/><path class="cls-6" d="M897.22,579.7c.6,0,.76.16.76.76v54.31c0,.6-.16.75-.76.75H885c-.6,0-.76-.15-.76-.75v-5.88c0-8.11.3-16.89.88-26.09l0-.74-.73-.15-.4-.08-.71-.14-.25.68c-1.49,4-4,9.84-7.3,17.24l-1.37,3a1.06,1.06,0,0,1-1.08.72h-9a1,1,0,0,1-1.07-.72l-1.37-3c-3.36-7.41-5.82-13.21-7.3-17.24l-.25-.68-.71.14-.41.08-.72.15,0,.74c.59,9.22.89,18,.89,26.09v5.88c0,.6-.16.75-.76.75H806.4c-.6,0-.76-.15-.76-.75V580.46c0-.6.16-.76.76-.76h47.78a1.08,1.08,0,0,1,1.09.74l5.15,10.38c2.39,4.78,4.89,10.52,7.45,17.06l.21.54h1.48l.21-.54c2.56-6.54,5.06-12.28,7.45-17.07l5.16-10.39a1.07,1.07,0,0,1,1.08-.72h13.76m-77.59,21.56h18.55a1.32,1.32,0,0,1,.39.06l1.09.32v-9.56h-20v9.18m0,21.89h20V613l-1.09.31a1.32,1.32,0,0,1-.39.06H819.63v9.83m77.59-44.3H883.46a1.9,1.9,0,0,0-1.85,1.21l-5.15,10.38q-3.62,7.23-7.48,17.13h-.32q-3.87-9.9-7.48-17.13L856,580.06a1.92,1.92,0,0,0-1.85-1.21H806.4a1.43,1.43,0,0,0-1.61,1.61v54.31a1.42,1.42,0,0,0,1.61,1.6h46.25a1.42,1.42,0,0,0,1.61-1.6v-5.88q0-12.23-.89-26.14l.4-.09q2.25,6.12,7.33,17.3l1.36,3a1.92,1.92,0,0,0,1.85,1.21h9a1.91,1.91,0,0,0,1.85-1.21l1.37-3q5.07-11.18,7.32-17.3l.41.09q-.9,13.9-.89,26.14v5.88a1.42,1.42,0,0,0,1.61,1.6h12.23a1.42,1.42,0,0,0,1.61-1.6V580.46a1.43,1.43,0,0,0-1.61-1.61Zm-76.74,21.56v-7.48h18.33v7.57a2.39,2.39,0,0,0-.63-.09Zm0,21.89v-8.13h17.7a2.39,2.39,0,0,0,.63-.09v8.22Z"/><path class="cls-6" d="M1111.34,579.7c.61,0,.76.16.76.76v10.86c0,.6-.15.76-.76.76h-21.68v9.18h18.55c.6,0,.76.16.76.76v10.54c0,.6-.16.76-.76.76h-18.55v9.83h23c.6,0,.76.15.76.75v10.87c0,.6-.16.75-.76.75h-36.28c-.6,0-.76-.15-.76-.75V608.3l-1.66,4.93-7.23,21.56a.93.93,0,0,1-1,.73h-15a.91.91,0,0,1-1-.7l-10.29-30.66-.92-2.73h0l-.42-1.25-2.52-7.52-.2-.58h-16.9v9.18h18.54l.19,0,.57.06v11.2c0,.6-.15.76-.75.76h-18.55v9.83h23.05c.6,0,.76.15.76.75v10.87c0,.6-.16.75-.76.75H995.43a1.09,1.09,0,0,1-1.1-.67l-8.69-16.65-.23-.46h-4.83v17c0,.6-.15.75-.76.75H967.35c-.6,0-.76-.15-.76-.75v-6.06l-1.47,1.56-.19.22c-.14.15-.28.3-.43.44-3.25,3.05-8,4.59-14,4.59H927.27c-.6,0-.76-.15-.76-.75V580.46c0-.6.16-.76.76-.76h22.85c5.33,0,9.52,1.4,12.45,4.15A13.16,13.16,0,0,1,965,587l1.59,2.86v-9.4c0-.6.16-.76.76-.76h20.44c6.59,0,11.78,1.73,15.4,5.15l1.44,1.36v-5.75c0-.6.15-.76.76-.76h40.14a.86.86,0,0,1,1,.76l6.6,21.81c1.27,4.24,2.68,9.77,4.17,16.43l.15.66h1.84l.15-.66c1.49-6.64,2.89-12.17,4.17-16.43l6.6-21.81a.86.86,0,0,1,.95-.76h40.23M940.5,601.5h6.72c3.51,0,5.44-1.81,5.44-5.11s-1.93-5-5.44-5H940.5V601.5M980.58,606H987c2.56,0,4.37-.54,5.53-1.64s1.76-2.84,1.76-5.16a6.67,6.67,0,0,0-1.79-5.05c-1.18-1.11-3-1.68-5.5-1.68h-6.4V606m-14,3.29v-9.59l-1.53,2.12a11.52,11.52,0,0,1-3.32,3l-1.46.89,1.6.62a13.41,13.41,0,0,1,3.34,1.87l1.37,1.08m38,16.81V611.39l-1.41,1.21a18.5,18.5,0,0,1-4.13,2.65l-.85.41.49.8,4.32,7.08,1.58,2.57m-64.13-2.64h8.57a5.51,5.51,0,0,0,5.92-6c0-2.59-1.12-5.68-6.48-5.68h-8v11.68m170.84-44.62h-40.23a1.71,1.71,0,0,0-1.77,1.37l-6.6,21.8q-1.92,6.43-4.18,16.49h-.48q-2.25-10.05-4.18-16.49l-6.6-21.8a1.71,1.71,0,0,0-1.77-1.37h-40.14a1.42,1.42,0,0,0-1.61,1.61v3.78q-5.7-5.38-16-5.39H967.35a1.43,1.43,0,0,0-1.61,1.61v6.13a13.37,13.37,0,0,0-2.59-3.35q-4.67-4.4-13-4.39H927.27a1.43,1.43,0,0,0-1.61,1.61v54.31a1.42,1.42,0,0,0,1.61,1.6h23.25q9.42,0,14.56-4.82c.24-.22.44-.46.66-.7v3.92a1.42,1.42,0,0,0,1.61,1.6h12.47a1.41,1.41,0,0,0,1.61-1.6V618.59h3.46l8.69,16.66a1.91,1.91,0,0,0,1.85,1.12h46.24a1.42,1.42,0,0,0,1.61-1.6V623.9a1.42,1.42,0,0,0-1.61-1.6h-22.2v-8.13h17.7a1.42,1.42,0,0,0,1.6-1.61v-8.13l10.3,30.66a1.76,1.76,0,0,0,1.77,1.28h15a1.76,1.76,0,0,0,1.77-1.28l7.25-21.59v21.27a1.41,1.41,0,0,0,1.61,1.6h36.28a1.42,1.42,0,0,0,1.61-1.6V623.9a1.42,1.42,0,0,0-1.61-1.6h-22.2v-8.13h17.7a1.43,1.43,0,0,0,1.61-1.61V602a1.43,1.43,0,0,0-1.61-1.61h-17.7v-7.48h20.83a1.42,1.42,0,0,0,1.61-1.61V580.46a1.42,1.42,0,0,0-1.61-1.61Zm-170,21.8v-8.44h5.87q4.59,0,4.59,4.18t-4.59,4.26Zm78.12-.24v-7.48h15.44l2.53,7.52a2.51,2.51,0,0,0-.27,0Zm-38,4.75V593.33H987c2.26,0,3.89.49,4.91,1.45a5.84,5.84,0,0,1,1.53,4.43q0,3.13-1.49,4.54T987,605.16Zm-15.69,2.39a13.8,13.8,0,0,0-3.55-2,12.08,12.08,0,0,0,3.55-3.23v5.22Zm-24.39,15.07v-10h7.16q5.63,0,5.63,4.83a4.68,4.68,0,0,1-5.07,5.15Zm62.43.47L999.45,616a19.25,19.25,0,0,0,4.33-2.78v9.85Z"/><path class="cls-7" d="M897.22,585.38c.65,0,.83.19.83.83v54.31c0,.64-.18.83-.83.83H885c-.65,0-.83-.19-.83-.83v-5.88c0-8.11.29-16.89.88-26.09l0-.68-.66-.13-.4-.08-.66-.13-.22.62c-1.49,4-3.95,9.84-7.3,17.24l-1.37,3a1.14,1.14,0,0,1-1.15.76h-9a1.13,1.13,0,0,1-1.14-.75l-1.37-3c-3.36-7.41-5.82-13.21-7.3-17.24l-.23-.62-.65.13-.4.08-.66.13,0,.68c.58,9.22.88,18,.88,26.09v5.88c0,.64-.19.83-.83.83H806.4c-.65,0-.83-.19-.83-.83V586.21c0-.64.18-.83.83-.83h47.78a1.15,1.15,0,0,1,1.15.77l5.15,10.39c2.4,4.78,4.9,10.52,7.46,17.07l.19.49h1.38l.19-.49c2.56-6.55,5.06-12.29,7.46-17.08l5.15-10.39a1.15,1.15,0,0,1,1.15-.76h13.76M819.7,606.94h18.48a1.45,1.45,0,0,1,.41.06l1,.29v-9.38H819.7v9m0,21.88h19.88v-10l-1,.29a1.58,1.58,0,0,1-.42.06H819.7v9.67m77.52-44.22H883.46a1.91,1.91,0,0,0-1.85,1.21l-5.15,10.38q-3.62,7.24-7.48,17.14h-.32q-3.87-9.9-7.48-17.14L856,585.81a1.93,1.93,0,0,0-1.85-1.21H806.4a1.43,1.43,0,0,0-1.61,1.61v54.31a1.43,1.43,0,0,0,1.61,1.61h46.25a1.43,1.43,0,0,0,1.61-1.61v-5.88q0-12.23-.89-26.14l.4-.08q2.25,6.11,7.33,17.29l1.36,3a1.91,1.91,0,0,0,1.85,1.21h9a1.9,1.9,0,0,0,1.85-1.21l1.37-3q5.07-11.18,7.32-17.29l.41.08q-.9,13.92-.89,26.14v5.88a1.43,1.43,0,0,0,1.61,1.61h12.23a1.43,1.43,0,0,0,1.61-1.61V586.21a1.43,1.43,0,0,0-1.61-1.61Zm-76.74,21.56v-7.48h18.33v7.58a2,2,0,0,0-.63-.1Zm0,21.89v-8.13h17.7a2,2,0,0,0,.63-.09v8.22Z"/><path class="cls-7" d="M1111.34,585.38c.65,0,.84.19.84.83v10.86c0,.65-.19.84-.84.84h-21.61v9h18.48c.64,0,.83.19.83.83v10.54c0,.65-.19.84-.83.84h-18.48v9.67h23c.65,0,.84.19.84.84v10.86c0,.64-.19.83-.84.83h-36.28c-.65,0-.84-.19-.84-.83v-26l-1.51,4.5-7.23,21.56a1,1,0,0,1-1,.78h-15a1,1,0,0,1-1-.76l-10.29-30.65-1-2.84h0l-.39-1.14-2.52-7.52-.18-.53h-16.78v9h18.49l.18,0,.64.07v11.27c0,.65-.19.84-.83.84h-18.48v9.67h23c.65,0,.83.19.83.84v10.86c0,.64-.18.83-.83.83H995.43a1.15,1.15,0,0,1-1.16-.71L985.58,624l-.22-.42h-4.7v16.95c0,.64-.19.83-.84.83H967.35c-.64,0-.83-.19-.83-.83v-5.87l-1.34,1.42-.2.22c-.14.15-.28.3-.43.44-3.27,3.07-8,4.62-14,4.62H927.27c-.65,0-.83-.19-.83-.83V586.21c0-.64.18-.83.83-.83h22.85c5.35,0,9.55,1.4,12.5,4.17a13.34,13.34,0,0,1,2.45,3.17l1.45,2.6v-9.11c0-.64.19-.83.83-.83h20.44c6.61,0,11.81,1.74,15.46,5.17l1.3,1.24v-5.58c0-.64.19-.83.84-.83h40.14a1,1,0,0,1,1,.82l6.59,21.8c1.28,4.25,2.68,9.78,4.17,16.44l.14.6h1.72l.14-.6c1.48-6.64,2.89-12.18,4.17-16.44l6.6-21.81a.94.94,0,0,1,1-.81h40.23m-170.77,21.8h6.65c4.43,0,5.36-2.74,5.36-5s-.93-5-5.36-5h-6.65v10m40.09,4.51H987c2.54,0,4.33-.53,5.48-1.62s1.73-2.81,1.73-5.11a6.56,6.56,0,0,0-1.77-5c-1.16-1.1-3-1.66-5.44-1.66h-6.32v13.38m-14.14,3.2V605.7l-1.4,1.93a11.49,11.49,0,0,1-3.34,3l-1.33.82,1.45.57a13,13,0,0,1,3.37,1.87l1.25,1m38,16.71V617.31l-1.28,1.1a18.67,18.67,0,0,1-4.15,2.66l-.78.37.45.74,4.33,7.07,1.43,2.35m-64-2.46h8.5a5.44,5.44,0,0,0,5.85-5.92c0-2.56-1.12-5.6-6.41-5.6h-7.94v11.52m170.77-44.54h-40.23a1.71,1.71,0,0,0-1.77,1.37l-6.6,21.8q-1.92,6.45-4.18,16.5h-.48q-2.25-10.07-4.18-16.5l-6.6-21.8a1.71,1.71,0,0,0-1.77-1.37h-40.14a1.42,1.42,0,0,0-1.61,1.61V590q-5.7-5.38-16-5.39H967.35a1.43,1.43,0,0,0-1.61,1.61v6.13a13.55,13.55,0,0,0-2.59-3.35q-4.67-4.38-13-4.39H927.27a1.43,1.43,0,0,0-1.61,1.61v54.31a1.43,1.43,0,0,0,1.61,1.61h23.25q9.42,0,14.56-4.83c.24-.22.44-.46.66-.69v3.91a1.43,1.43,0,0,0,1.61,1.61h12.47a1.42,1.42,0,0,0,1.61-1.61V624.35h3.46L993.58,641a1.92,1.92,0,0,0,1.85,1.13h46.24a1.43,1.43,0,0,0,1.61-1.61V629.66a1.42,1.42,0,0,0-1.61-1.61h-22.2v-8.13h17.7a1.41,1.41,0,0,0,1.6-1.61v-8.13l10.3,30.66a1.77,1.77,0,0,0,1.77,1.29h15a1.77,1.77,0,0,0,1.77-1.29l7.25-21.58v21.26a1.42,1.42,0,0,0,1.61,1.61h36.28a1.43,1.43,0,0,0,1.61-1.61V629.66a1.42,1.42,0,0,0-1.61-1.61h-22.2v-8.13h17.7a1.42,1.42,0,0,0,1.61-1.61V607.77a1.43,1.43,0,0,0-1.61-1.61h-17.7v-7.48h20.83a1.42,1.42,0,0,0,1.61-1.61V586.21a1.42,1.42,0,0,0-1.61-1.61Zm-170,21.81V598h5.87q4.59,0,4.59,4.18t-4.59,4.27Zm78.12-.25v-7.48h15.44l2.53,7.52a2.51,2.51,0,0,0-.27,0Zm-38,4.75V599.09H987c2.26,0,3.89.48,4.91,1.44a5.84,5.84,0,0,1,1.53,4.43c0,2.09-.5,3.61-1.49,4.54s-2.64,1.41-4.95,1.41Zm-15.69,2.39a14.11,14.11,0,0,0-3.55-2,12.19,12.19,0,0,0,3.55-3.22v5.21Zm-24.39,15.07v-10h7.16q5.63,0,5.63,4.83a4.68,4.68,0,0,1-5.07,5.15Zm62.43.48-4.33-7.08a19.58,19.58,0,0,0,4.33-2.77v9.85Z"/><path class="cls-8" d="M897.22,591.06c.69,0,.91.22.91.9v54.31c0,.69-.22.91-.91.91H885c-.69,0-.91-.22-.91-.91V640.4c0-8.12.3-16.9.88-26.11l0-.61-.6-.12-.4-.08-.59-.11-.2.56c-1.49,4-4,9.85-7.3,17.24l-1.37,3a1.23,1.23,0,0,1-1.22.8h-9a1.22,1.22,0,0,1-1.21-.8l-1.37-3c-3.36-7.42-5.82-13.22-7.3-17.25l-.21-.56-.58.11-.41.08-.6.12,0,.61c.59,9.23.89,18,.89,26.11v5.87c0,.69-.22.91-.91.91H806.4c-.69,0-.91-.22-.91-.91V592c0-.68.22-.9.91-.9h47.78a1.23,1.23,0,0,1,1.22.81l5.15,10.38c2.39,4.79,4.9,10.54,7.46,17.08l.17.45h1.28l.17-.45c2.56-6.55,5.07-12.29,7.46-17.08l5.16-10.39a1.2,1.2,0,0,1,1.21-.8h13.76m-77.44,21.56h18.4a1.54,1.54,0,0,1,.43.06l.9.26v-9.21H819.78v8.89m0,21.88h19.73v-9.85l-.89.26a1.67,1.67,0,0,1-.44.06h-18.4v9.53m77.44-44.14H883.46a1.9,1.9,0,0,0-1.85,1.2l-5.15,10.38q-3.62,7.24-7.48,17.14h-.32q-3.87-9.9-7.48-17.14L856,591.56a1.92,1.92,0,0,0-1.85-1.2H806.4a1.42,1.42,0,0,0-1.61,1.6v54.31a1.43,1.43,0,0,0,1.61,1.61h46.25a1.43,1.43,0,0,0,1.61-1.61V640.4q0-12.24-.89-26.15l.4-.08q2.25,6.12,7.33,17.3l1.36,3a1.91,1.91,0,0,0,1.85,1.21h9a1.9,1.9,0,0,0,1.85-1.21l1.37-3q5.07-11.19,7.32-17.3l.41.08q-.9,13.92-.89,26.15v5.87a1.43,1.43,0,0,0,1.61,1.61h12.23a1.43,1.43,0,0,0,1.61-1.61V592a1.42,1.42,0,0,0-1.61-1.6Zm-76.74,21.56v-7.49h18.33V612a2,2,0,0,0-.63-.09Zm0,21.88v-8.13h17.7a2,2,0,0,0,.63-.09v8.22Z"/><path class="cls-8" d="M1111.34,591.06c.69,0,.91.22.91.9v10.87c0,.68-.22.9-.91.9h-21.53v8.89h18.4c.68,0,.91.22.91.91v10.53c0,.69-.23.91-.91.91h-18.4v9.53h22.9c.69,0,.91.22.91.91v10.86c0,.69-.22.91-.91.91h-36.28c-.69,0-.91-.22-.91-.91V620.73l-1.36,4.06-7.24,21.56a1.09,1.09,0,0,1-1.12.83h-15a1.08,1.08,0,0,1-1.11-.81l-10.29-30.66-1-3h0l-.35-1-2.52-7.52-.16-.48h-16.65v8.89h18.42a.52.52,0,0,0,.18,0l.7.08v11.33c0,.69-.22.91-.9.91h-18.4v9.53h22.9c.69,0,.91.22.91.91v10.86c0,.69-.22.91-.91.91H995.43a1.24,1.24,0,0,1-1.23-.75l-8.69-16.65-.19-.38h-4.59v16.87c0,.69-.22.91-.91.91H967.35c-.69,0-.91-.22-.91-.91v-5.68l-1.21,1.29-.19.21a6.2,6.2,0,0,1-.44.45c-3.28,3.08-8,4.64-14.08,4.64H927.27c-.69,0-.91-.22-.91-.91V592c0-.68.22-.9.91-.9h22.85c5.37,0,9.59,1.41,12.55,4.19a12.93,12.93,0,0,1,2.46,3.18l1.31,2.36V592c0-.68.22-.9.91-.9h20.44c6.63,0,11.85,1.74,15.51,5.19l1.18,1.11V592c0-.68.22-.9.91-.9h40.14a1,1,0,0,1,1.1.87l6.59,21.8c1.28,4.25,2.68,9.78,4.18,16.44l.12.55h1.6l.12-.55c1.49-6.64,2.89-12.17,4.17-16.44l6.6-21.81a1,1,0,0,1,1.1-.86h40.23m-170.69,21.8h6.57c4.37,0,5.29-2.7,5.29-5s-.92-4.88-5.29-4.88h-6.57v9.85m40.08,4.5H987c2.52,0,4.29-.52,5.43-1.6s1.71-2.77,1.71-5a6.51,6.51,0,0,0-1.75-4.93c-1.15-1.09-3-1.64-5.39-1.64h-6.25v13.22m-14.29,3.13v-8.81l-1.26,1.75a11.64,11.64,0,0,1-3.36,3l-1.2.74,1.31.51a13.22,13.22,0,0,1,3.38,1.88l1.13.89m38,16.6V623.22l-1.16,1a18.49,18.49,0,0,1-4.17,2.67l-.7.34.41.66,4.32,7.07,1.3,2.13m-63.83-2.27h8.42a5.36,5.36,0,0,0,5.77-5.85c0-2.52-1.1-5.53-6.33-5.53h-7.86v11.38m170.69-44.46h-40.23a1.7,1.7,0,0,0-1.77,1.36l-6.6,21.81q-1.92,6.44-4.18,16.49h-.48q-2.25-10.07-4.18-16.49l-6.6-21.81a1.7,1.7,0,0,0-1.77-1.36h-40.14a1.41,1.41,0,0,0-1.61,1.6v3.78q-5.7-5.37-16-5.38H967.35a1.42,1.42,0,0,0-1.61,1.6v6.13a13.55,13.55,0,0,0-2.59-3.35q-4.67-4.38-13-4.38H927.27a1.42,1.42,0,0,0-1.61,1.6v54.31a1.43,1.43,0,0,0,1.61,1.61h23.25q9.42,0,14.56-4.83c.24-.22.44-.46.66-.69v3.91a1.43,1.43,0,0,0,1.61,1.61h12.47a1.42,1.42,0,0,0,1.61-1.61V630.1h3.46l8.69,16.65a1.92,1.92,0,0,0,1.85,1.13h46.24a1.43,1.43,0,0,0,1.61-1.61V635.41a1.43,1.43,0,0,0-1.61-1.61h-22.2v-8.13h17.7a1.41,1.41,0,0,0,1.6-1.61v-8.12l10.3,30.65a1.77,1.77,0,0,0,1.77,1.29h15a1.77,1.77,0,0,0,1.77-1.29l7.25-21.58v21.26a1.42,1.42,0,0,0,1.61,1.61h36.28a1.43,1.43,0,0,0,1.61-1.61V635.41a1.43,1.43,0,0,0-1.61-1.61h-22.2v-8.13h17.7a1.42,1.42,0,0,0,1.61-1.61V613.53a1.42,1.42,0,0,0-1.61-1.61h-17.7v-7.49h20.83a1.41,1.41,0,0,0,1.61-1.6V592a1.41,1.41,0,0,0-1.61-1.6Zm-170,21.8v-8.45h5.87c3.06,0,4.59,1.4,4.59,4.18s-1.53,4.27-4.59,4.27Zm78.12-.24v-7.49h15.44l2.53,7.53a2.51,2.51,0,0,0-.27,0Zm-38,4.74V604.84H987c2.26,0,3.89.48,4.91,1.45a5.81,5.81,0,0,1,1.53,4.42q0,3.13-1.49,4.55t-4.95,1.4Zm-15.69,2.39a14.09,14.09,0,0,0-3.55-2,12.22,12.22,0,0,0,3.55-3.23v5.21Zm-24.39,15.07v-10h7.16q5.63,0,5.63,4.83a4.68,4.68,0,0,1-5.07,5.15Zm62.43.48-4.33-7.08a19.58,19.58,0,0,0,4.33-2.77v9.85Z"/><path class="cls-9" d="M897.22,596.73c.72,0,1,.26,1,1V652c0,.73-.26,1-1,1H885c-.73,0-1-.26-1-1v-5.87c0-8.12.29-16.9.88-26.11l0-.54-.53-.11-.4-.08-.53-.11-.18.51c-1.49,4-3.95,9.85-7.31,17.25l-1.36,3a1.3,1.3,0,0,1-1.29.85h-9a1.29,1.29,0,0,1-1.28-.85l-1.37-3c-3.36-7.42-5.82-13.22-7.3-17.25l-.18-.51-.53.11-.4.08-.54.11,0,.54c.58,9.23.88,18,.88,26.11V652c0,.73-.26,1-1,1H806.4c-.73,0-1-.26-1-1v-54.3c0-.73.25-1,1-1h47.78a1.3,1.3,0,0,1,1.29.86L860.62,608c2.39,4.79,4.9,10.54,7.46,17.09l.15.39h1.18l.15-.39c2.56-6.55,5.07-12.3,7.46-17.09l5.16-10.39a1.29,1.29,0,0,1,1.28-.85h13.76m-77.37,21.56h18.33a1.83,1.83,0,0,1,.46.07l.8.23v-9H819.85v8.73m0,21.89h19.59v-9.67l-.8.23a1.88,1.88,0,0,1-.46.06H819.85v9.38m77.37-44.07H883.46a1.9,1.9,0,0,0-1.85,1.2l-5.15,10.38q-3.62,7.24-7.48,17.14h-.32q-3.87-9.9-7.48-17.14L856,597.31a1.92,1.92,0,0,0-1.85-1.2H806.4a1.42,1.42,0,0,0-1.61,1.61V652a1.42,1.42,0,0,0,1.61,1.61h46.25a1.42,1.42,0,0,0,1.61-1.61v-5.87q0-12.23-.89-26.15l.4-.08q2.25,6.12,7.33,17.3l1.36,3a1.91,1.91,0,0,0,1.85,1.2h9a1.9,1.9,0,0,0,1.85-1.2l1.37-3q5.07-11.19,7.32-17.3l.41.08q-.9,13.92-.89,26.15V652a1.42,1.42,0,0,0,1.61,1.61h12.23a1.42,1.42,0,0,0,1.61-1.61v-54.3a1.42,1.42,0,0,0-1.61-1.61Zm-76.74,21.56v-7.48h18.33v7.57a2.39,2.39,0,0,0-.63-.09Zm0,21.88v-8.12h17.7a2.39,2.39,0,0,0,.63-.09v8.21Z"/><path class="cls-9" d="M1111.34,596.73c.73,0,1,.26,1,1v10.86c0,.72-.26,1-1,1h-21.46v8.73h18.33c.72,0,1,.26,1,1v10.54c0,.72-.26,1-1,1h-18.33v9.38h22.83c.73,0,1,.25,1,1V652c0,.73-.26,1-1,1h-36.28c-.73,0-1-.26-1-1V626.94l-1.21,3.62L1067,652.12a1.17,1.17,0,0,1-1.19.89h-15a1.14,1.14,0,0,1-1.18-.87l-10.29-30.65-1-3.06h0l-.31-.92L1035.5,610l-.14-.43h-16.52v8.73h18.37l.16,0,.78.08v11.41c0,.72-.26,1-1,1h-18.33v9.38h22.83c.73,0,1,.25,1,1V652c0,.73-.25,1-1,1H995.43a1.31,1.31,0,0,1-1.3-.79l-8.68-16.66-.18-.33h-4.46V652c0,.73-.26,1-1,1H967.35c-.72,0-1-.26-1-1v-5.49l-1.08,1.15-.2.21c-.14.16-.28.31-.43.46-3.3,3.09-8.06,4.66-14.14,4.66H927.27c-.73,0-1-.26-1-1v-54.3c0-.73.25-1,1-1h22.85c5.39,0,9.63,1.42,12.6,4.22a12.93,12.93,0,0,1,2.48,3.2l1.17,2.1v-8.53c0-.73.26-1,1-1h20.44c6.65,0,11.89,1.76,15.56,5.22l1,1v-5.22c0-.73.26-1,1-1h40.14a1.1,1.1,0,0,1,1.17.93l6.6,21.8c1.27,4.25,2.68,9.78,4.17,16.45l.11.49h1.48l.11-.49c1.49-6.65,2.89-12.18,4.17-16.45l6.6-21.81a1.1,1.1,0,0,1,1.17-.92h40.23M940.72,618.54h6.5c3.41,0,5.21-1.69,5.21-4.89,0-2.2-.9-4.81-5.21-4.81h-6.5v9.7m40.09,4.5H987c2.5,0,4.26-.52,5.38-1.58s1.68-2.74,1.68-5a6.47,6.47,0,0,0-1.72-4.88c-1.13-1.07-2.93-1.62-5.34-1.62h-6.17V623m-14.44,3.05v-8.43l-1.13,1.56a12,12,0,0,1-3.38,3.07l-1.07.65,1.17.46a13.26,13.26,0,0,1,3.4,1.9l1,.79m38,16.48V629.14l-1,.89a18.79,18.79,0,0,1-4.19,2.68l-.62.3.36.59,4.32,7.08,1.16,1.89m-63.68-2.07h8.35a5.31,5.31,0,0,0,5.7-5.78c0-2.48-1.09-5.45-6.26-5.45h-7.79V640.5m170.62-44.39h-40.23a1.7,1.7,0,0,0-1.77,1.37l-6.6,21.8q-1.92,6.44-4.18,16.49h-.48q-2.25-10-4.18-16.49l-6.6-21.8a1.7,1.7,0,0,0-1.77-1.37h-40.14a1.42,1.42,0,0,0-1.61,1.61v3.77q-5.7-5.37-16-5.38H967.35a1.42,1.42,0,0,0-1.61,1.61v6.12a13.55,13.55,0,0,0-2.59-3.35q-4.67-4.38-13-4.38H927.27a1.42,1.42,0,0,0-1.61,1.61V652a1.42,1.42,0,0,0,1.61,1.61h23.25q9.42,0,14.56-4.83c.24-.22.44-.46.66-.69V652a1.42,1.42,0,0,0,1.61,1.61h12.47a1.42,1.42,0,0,0,1.61-1.61V635.85h3.46l8.69,16.65a1.9,1.9,0,0,0,1.85,1.13h46.24a1.42,1.42,0,0,0,1.61-1.61V641.16a1.43,1.43,0,0,0-1.61-1.61h-22.2v-8.12h17.7a1.42,1.42,0,0,0,1.6-1.61v-8.13l10.3,30.65a1.77,1.77,0,0,0,1.77,1.29h15a1.77,1.77,0,0,0,1.77-1.29l7.25-21.58V652a1.42,1.42,0,0,0,1.61,1.61h36.28a1.42,1.42,0,0,0,1.61-1.61V641.16a1.43,1.43,0,0,0-1.61-1.61h-22.2v-8.12h17.7a1.43,1.43,0,0,0,1.61-1.61V619.28a1.43,1.43,0,0,0-1.61-1.61h-17.7v-7.48h20.83a1.42,1.42,0,0,0,1.61-1.61V597.72a1.42,1.42,0,0,0-1.61-1.61Zm-170,21.8v-8.45h5.87q4.59,0,4.59,4.19t-4.59,4.26Zm78.12-.24v-7.48h15.44l2.53,7.52a2.51,2.51,0,0,0-.27,0Zm-38,4.75V610.59H987c2.26,0,3.89.48,4.91,1.45a5.81,5.81,0,0,1,1.53,4.42q0,3.13-1.49,4.55T987,622.42Zm-15.69,2.39a13.8,13.8,0,0,0-3.55-2,12.08,12.08,0,0,0,3.55-3.23v5.22Zm-24.39,15.06v-10h7.16q5.63,0,5.63,4.82a4.67,4.67,0,0,1-5.07,5.15Zm62.43.48-4.33-7.07a19.61,19.61,0,0,0,4.33-2.78v9.85Z"/><path class="cls-10" d="M897.22,602.41c.77,0,1.06.29,1.06,1.06v54.3c0,.78-.29,1.06-1.06,1.06H885c-.77,0-1.06-.28-1.06-1.06V651.9c0-8.12.3-16.9.88-26.11l0-.48-.47-.09-.4-.08-.46-.1-.16.44c-1.49,4-4,9.86-7.31,17.26l-1.36,3a1.36,1.36,0,0,1-1.36.89h-9a1.36,1.36,0,0,1-1.35-.88l-1.36-3c-3.37-7.42-5.83-13.22-7.31-17.26l-.16-.44-.46.1-.41.08-.47.09,0,.48c.59,9.23.89,18,.89,26.11v5.87c0,.78-.29,1.06-1.06,1.06H806.4c-.77,0-1.06-.28-1.06-1.06v-54.3c0-.77.29-1.06,1.06-1.06h47.78a1.36,1.36,0,0,1,1.35.9l5.15,10.38c2.4,4.79,4.91,10.54,7.47,17.09l.13.35h1.08l.13-.35c2.56-6.55,5.07-12.3,7.46-17.09l5.16-10.39a1.35,1.35,0,0,1,1.35-.89h13.76M819.93,624h18.25a1.59,1.59,0,0,1,.48.07l.7.2v-8.85H819.93V624m0,21.88h19.43v-9.49l-.7.2a1.64,1.64,0,0,1-.48.07H819.93v9.22m77.29-44H883.46a1.9,1.9,0,0,0-1.85,1.21l-5.15,10.38q-3.62,7.23-7.48,17.13h-.32q-3.87-9.9-7.48-17.13L856,603.07a1.92,1.92,0,0,0-1.85-1.21H806.4a1.43,1.43,0,0,0-1.61,1.61v54.3a1.42,1.42,0,0,0,1.61,1.61h46.25a1.42,1.42,0,0,0,1.61-1.61V651.9q0-12.23-.89-26.15l.4-.08q2.25,6.12,7.33,17.3l1.36,3a1.91,1.91,0,0,0,1.85,1.2h9a1.9,1.9,0,0,0,1.85-1.2l1.37-3q5.07-11.18,7.32-17.3l.41.08q-.9,13.92-.89,26.15v5.87a1.42,1.42,0,0,0,1.61,1.61h12.23a1.42,1.42,0,0,0,1.61-1.61v-54.3a1.43,1.43,0,0,0-1.61-1.61Zm-76.74,21.56v-7.48h18.33v7.57a2.39,2.39,0,0,0-.63-.09Zm0,21.88v-8.12h17.7a2.39,2.39,0,0,0,.63-.09v8.21Z"/><path class="cls-10" d="M1111.34,602.41c.78,0,1.06.29,1.06,1.06v10.86c0,.77-.28,1.06-1.06,1.06H1090V624h18.25c.77,0,1.06.29,1.06,1.06v10.54c0,.77-.29,1.06-1.06,1.06H1090v9.22h22.75c.77,0,1.06.29,1.06,1.06v10.86c0,.78-.29,1.06-1.06,1.06h-36.28c-.77,0-1.06-.28-1.06-1.06V633.15l-1.07,3.19-7.24,21.56a1.22,1.22,0,0,1-1.26.93h-15a1.21,1.21,0,0,1-1.25-.91l-10.29-30.65-1.07-3.17h0l-.27-.81-2.53-7.53-.12-.37h-16.39V624h18.3l.16,0,.84.09v11.47c0,.77-.28,1.06-1,1.06h-18.25v9.22h22.75c.77,0,1.06.29,1.06,1.06v10.86c0,.78-.29,1.06-1.06,1.06H995.43a1.37,1.37,0,0,1-1.36-.83l-8.69-16.65-.16-.3h-4.34v16.72c0,.78-.29,1.06-1.06,1.06H967.35c-.77,0-1.06-.28-1.06-1.06v-5.29l-.95,1-.19.21-.44.46c-3.31,3.1-8.09,4.67-14.19,4.67H927.27c-.77,0-1.06-.28-1.06-1.06v-54.3c0-.77.29-1.06,1.06-1.06h22.85c5.41,0,9.66,1.43,12.65,4.24a13.2,13.2,0,0,1,2.49,3.21l1,1.85v-8.24c0-.77.29-1.06,1.06-1.06h20.44c6.67,0,11.93,1.76,15.61,5.24l.93.87v-5c0-.77.28-1.06,1.06-1.06h40.14a1.16,1.16,0,0,1,1.24,1l6.6,21.8c1.27,4.25,2.68,9.79,4.17,16.45l.1.43H1059l.1-.43c1.49-6.64,2.89-12.18,4.17-16.45l6.6-21.81a1.16,1.16,0,0,1,1.24-1h40.23M940.8,624.21h6.42c3.36,0,5.14-1.66,5.14-4.81,0-2.16-.89-4.73-5.14-4.73H940.8v9.54m40.08,4.51H987c2.44,0,4.23-.53,5.33-1.56s1.66-2.71,1.66-4.95a6.36,6.36,0,0,0-1.7-4.82c-1.12-1.06-2.9-1.6-5.29-1.6h-6.1v12.93m-14.59,3v-8l-1,1.37a11.65,11.65,0,0,1-3.4,3.08l-.94.58,1,.4A13.66,13.66,0,0,1,965.4,631l.89.7m38,16.37v-13l-.91.77a18.79,18.79,0,0,1-4.2,2.7l-.55.26.31.53,4.33,7.07,1,1.67m-63.53-1.88h8.27a5.22,5.22,0,0,0,5.62-5.7c0-2.46-1.07-5.38-6.18-5.38H940.8v11.08m170.54-44.32h-40.23a1.71,1.71,0,0,0-1.77,1.37l-6.6,21.8q-1.92,6.44-4.18,16.49h-.48q-2.25-10-4.18-16.49l-6.6-21.8a1.71,1.71,0,0,0-1.77-1.37h-40.14a1.42,1.42,0,0,0-1.61,1.61v3.78q-5.7-5.38-16-5.39H967.35a1.43,1.43,0,0,0-1.61,1.61v6.13a13.37,13.37,0,0,0-2.59-3.35q-4.67-4.39-13-4.39H927.27a1.43,1.43,0,0,0-1.61,1.61v54.3a1.42,1.42,0,0,0,1.61,1.61h23.25q9.42,0,14.56-4.82c.24-.22.44-.47.66-.7v3.91a1.42,1.42,0,0,0,1.61,1.61h12.47a1.42,1.42,0,0,0,1.61-1.61V641.6h3.46l8.69,16.66a1.91,1.91,0,0,0,1.85,1.12h46.24a1.42,1.42,0,0,0,1.61-1.61V646.91a1.43,1.43,0,0,0-1.61-1.61h-22.2v-8.12h17.7a1.42,1.42,0,0,0,1.6-1.61v-8.13l10.3,30.66a1.77,1.77,0,0,0,1.77,1.28h15a1.77,1.77,0,0,0,1.77-1.28l7.25-21.59v21.26a1.42,1.42,0,0,0,1.61,1.61h36.28a1.42,1.42,0,0,0,1.61-1.61V646.91a1.43,1.43,0,0,0-1.61-1.61h-22.2v-8.12h17.7a1.43,1.43,0,0,0,1.61-1.61V625a1.43,1.43,0,0,0-1.61-1.61h-17.7v-7.48h20.83a1.42,1.42,0,0,0,1.61-1.61V603.47a1.42,1.42,0,0,0-1.61-1.61Zm-170,21.8v-8.44h5.87q4.59,0,4.59,4.18t-4.59,4.26Zm78.12-.24v-7.48h15.44l2.53,7.52a2.51,2.51,0,0,0-.27,0Zm-38,4.75V616.34H987c2.26,0,3.89.48,4.91,1.45a5.83,5.83,0,0,1,1.53,4.42c0,2.1-.5,3.61-1.49,4.55s-2.64,1.41-4.95,1.41Zm-15.69,2.39a13.8,13.8,0,0,0-3.55-2,12.08,12.08,0,0,0,3.55-3.23v5.22Zm-24.39,15.07v-10h7.16q5.63,0,5.63,4.83a4.68,4.68,0,0,1-5.07,5.15Zm62.43.47L999.45,639a19.25,19.25,0,0,0,4.33-2.78v9.85Z"/><path class="cls-11" d="M897.22,608.09c.8,0,1.13.33,1.13,1.13v54.31c0,.8-.33,1.13-1.13,1.13H885c-.82,0-1.13-.32-1.13-1.13v-5.88c0-8.12.29-16.9.88-26.11l0-.42-.41-.08L884,631l-.4-.08-.14.38c-1.49,4-3.95,9.86-7.31,17.27l-1.37,3a1.42,1.42,0,0,1-1.42.93h-9a1.44,1.44,0,0,1-1.42-.93l-1.36-3c-3.37-7.42-5.82-13.23-7.31-17.27l-.14-.38-.4.08-.4.08-.41.08,0,.42c.58,9.23.88,18,.88,26.11v5.88c0,.8-.33,1.13-1.13,1.13H806.4c-.82,0-1.13-.32-1.13-1.13V609.22c0-.8.32-1.13,1.13-1.13h47.78a1.43,1.43,0,0,1,1.42.94l5.15,10.38c2.4,4.79,4.91,10.55,7.47,17.1l.11.3h1l.12-.3c2.56-6.56,5.07-12.31,7.47-17.1L882,609a1.44,1.44,0,0,1,1.42-.93h13.76M820,629.65h18.18a1.73,1.73,0,0,1,.5.07l.61.18v-8.68H820v8.43m0,21.88h19.29v-9.32l-.61.17a1.74,1.74,0,0,1-.5.08H820v9.07m77.22-43.92H883.46a1.9,1.9,0,0,0-1.85,1.21l-5.15,10.38q-3.62,7.23-7.48,17.13h-.32q-3.87-9.89-7.48-17.13L856,608.82a1.92,1.92,0,0,0-1.85-1.21H806.4a1.43,1.43,0,0,0-1.61,1.61v54.31a1.43,1.43,0,0,0,1.61,1.61h46.25a1.43,1.43,0,0,0,1.61-1.61v-5.88q0-12.23-.89-26.14l.4-.08q2.25,6.11,7.33,17.29l1.36,3a1.92,1.92,0,0,0,1.85,1.21h9a1.91,1.91,0,0,0,1.85-1.21l1.37-3q5.07-11.18,7.32-17.29l.41.08q-.9,13.92-.89,26.14v5.88a1.43,1.43,0,0,0,1.61,1.61h12.23a1.43,1.43,0,0,0,1.61-1.61V609.22a1.43,1.43,0,0,0-1.61-1.61Zm-76.74,21.56v-7.48h18.33v7.57a2.39,2.39,0,0,0-.63-.09Zm0,21.89v-8.13h17.7a2.39,2.39,0,0,0,.63-.09v8.22Z"/><path class="cls-11" d="M1111.34,608.09c.81,0,1.14.33,1.14,1.13v10.86c0,.81-.33,1.14-1.14,1.14H1090v8.43h18.18c.8,0,1.13.33,1.13,1.13v10.54c0,.81-.33,1.14-1.13,1.14H1090v9.07h22.68c.81,0,1.14.33,1.14,1.14v10.86c0,.8-.33,1.13-1.14,1.13h-36.28c-.82,0-1.14-.32-1.14-1.13V639.36l-.92,2.75-7.24,21.57a1.31,1.31,0,0,1-1.33,1h-15a1.28,1.28,0,0,1-1.32-1L1039.22,633l-.92-2.75v11c0,.81-.33,1.14-1.13,1.14H1019v9.07h22.68c.81,0,1.13.33,1.13,1.14v10.86c0,.8-.32,1.13-1.13,1.13H995.43a1.45,1.45,0,0,1-1.43-.87l-8.69-16.65-.13-.26H981v16.65c0,.8-.33,1.13-1.14,1.13H967.35c-.81,0-1.13-.32-1.13-1.13v-5.11l-.82.87-.2.21c-.14.16-.29.31-.44.46-3.33,3.12-8.12,4.7-14.24,4.7H927.27c-.82,0-1.13-.32-1.13-1.13V609.22c0-.8.32-1.13,1.13-1.13h22.85c5.42,0,9.7,1.43,12.71,4.25a13.66,13.66,0,0,1,2.5,3.24l.89,1.6v-8c0-.8.33-1.13,1.13-1.13h20.44c6.69,0,12,1.77,15.66,5.25l.8.76v-4.88c0-.8.33-1.13,1.14-1.13h40.14a1.23,1.23,0,0,1,1.31,1l6.6,21.8c1.28,4.25,2.68,9.79,4.18,16.46l.08.37h1.24l.08-.37c1.49-6.65,2.9-12.19,4.18-16.46l6.6-21.81a1.23,1.23,0,0,1,1.31-1h40.23m-170.47,21.8h6.35c3.31,0,5.06-1.64,5.06-4.74s-1.75-4.66-5.06-4.66h-6.35v9.4m78.12-.24h18.25l.15,0,.73.08-.23-.7-2.53-7.52-.11-.32H1019v8.43m-38,4.75h6c2.42,0,4.2-.52,5.28-1.54s1.63-2.68,1.63-4.89a6.3,6.3,0,0,0-1.67-4.77c-1.11-1.05-2.87-1.58-5.24-1.58h-6V634.4m-14.74,2.89v-7.66l-.86,1.19a11.93,11.93,0,0,1-3.42,3.1l-.82.5.89.34a13.53,13.53,0,0,1,3.44,1.92l.77.61m-25.35,14.56h8.2a5.15,5.15,0,0,0,5.55-5.62c0-2.42-1.06-5.3-6.11-5.3h-7.64v10.92m63.38,1.69V641l-.78.67a18.83,18.83,0,0,1-4.22,2.71l-.48.23.28.45,4.32,7.07.88,1.44m107.09-45.93h-40.23a1.71,1.71,0,0,0-1.77,1.37l-6.6,21.8q-1.92,6.44-4.18,16.49h-.48q-2.25-10-4.18-16.49l-6.6-21.8a1.71,1.71,0,0,0-1.77-1.37h-40.14a1.42,1.42,0,0,0-1.61,1.61V613q-5.7-5.38-16-5.39H967.35a1.43,1.43,0,0,0-1.61,1.61v6.13a13.37,13.37,0,0,0-2.59-3.35q-4.67-4.39-13-4.39H927.27a1.43,1.43,0,0,0-1.61,1.61v54.31a1.43,1.43,0,0,0,1.61,1.61h23.25q9.42,0,14.56-4.83c.24-.22.44-.46.66-.7v3.92a1.43,1.43,0,0,0,1.61,1.61h12.47a1.42,1.42,0,0,0,1.61-1.61V647.36h3.46L993.58,664a1.92,1.92,0,0,0,1.85,1.13h46.24a1.43,1.43,0,0,0,1.61-1.61V652.67a1.42,1.42,0,0,0-1.61-1.61h-22.2v-8.13h17.7a1.42,1.42,0,0,0,1.6-1.61v-8.13l10.3,30.66a1.77,1.77,0,0,0,1.77,1.29h15a1.77,1.77,0,0,0,1.77-1.29l7.25-21.58v21.26a1.42,1.42,0,0,0,1.61,1.61h36.28a1.43,1.43,0,0,0,1.61-1.61V652.67a1.42,1.42,0,0,0-1.61-1.61h-22.2v-8.13h17.7a1.43,1.43,0,0,0,1.61-1.61V630.78a1.43,1.43,0,0,0-1.61-1.61h-17.7v-7.48h20.83a1.42,1.42,0,0,0,1.61-1.61V609.22a1.42,1.42,0,0,0-1.61-1.61Zm-170,21.8V621h5.87q4.59,0,4.59,4.18t-4.59,4.26Zm78.12-.24v-7.48h15.44l2.53,7.52a2.51,2.51,0,0,0-.27,0Zm-38,4.75V622.09H987c2.26,0,3.89.49,4.91,1.45a5.84,5.84,0,0,1,1.53,4.43q0,3.13-1.49,4.54T987,633.92Zm-15.69,2.39a14.11,14.11,0,0,0-3.55-2,12.08,12.08,0,0,0,3.55-3.23v5.22Zm-24.39,15.07v-10h7.16q5.63,0,5.63,4.83a4.68,4.68,0,0,1-5.07,5.15Zm62.43.48-4.33-7.08a19.25,19.25,0,0,0,4.33-2.78v9.86Z"/><path class="cls-12" d="M897.22,613.76c.85,0,1.21.37,1.21,1.21v54.31c0,.85-.36,1.21-1.21,1.21H885c-.85,0-1.21-.36-1.21-1.21v-5.87c0-8.12.3-16.91.88-26.13l0-.34-.35-.07-.4-.08-.33-.07-.12.32c-1.5,4.05-4,9.86-7.31,17.27l-1.37,3a1.51,1.51,0,0,1-1.49,1h-9a1.51,1.51,0,0,1-1.48-1l-1.37-3c-3.37-7.42-5.82-13.23-7.31-17.27l-.12-.32-.33.07-.41.08-.34.07,0,.34c.59,9.24.89,18,.89,26.13v5.87c0,.85-.36,1.21-1.21,1.21H806.4c-.85,0-1.21-.36-1.21-1.21V615c0-.84.36-1.21,1.21-1.21h47.78a1.53,1.53,0,0,1,1.49,1l5.15,10.38c2.4,4.79,4.91,10.55,7.47,17.1l.09.26h.87l.1-.26c2.56-6.56,5.07-12.31,7.47-17.1L882,614.74a1.51,1.51,0,0,1,1.49-1h13.76m-77.14,21.57h18.1a1.86,1.86,0,0,1,.52.07l.51.15V627H820.08v8.29m0,21.88h19.13v-9.15l-.51.15a1.86,1.86,0,0,1-.52.07h-18.1v8.93m77.14-43.85H883.46a1.91,1.91,0,0,0-1.85,1.21L876.46,625q-3.62,7.24-7.48,17.14h-.32q-3.87-9.9-7.48-17.14L856,614.57a1.93,1.93,0,0,0-1.85-1.21H806.4a1.43,1.43,0,0,0-1.61,1.61v54.31a1.43,1.43,0,0,0,1.61,1.61h46.25a1.43,1.43,0,0,0,1.61-1.61v-5.87q0-12.24-.89-26.15l.4-.08q2.25,6.12,7.33,17.3l1.36,3a1.91,1.91,0,0,0,1.85,1.21h9a1.9,1.9,0,0,0,1.85-1.21l1.37-3q5.07-11.19,7.32-17.3l.41.08q-.9,13.92-.89,26.15v5.87a1.43,1.43,0,0,0,1.61,1.61h12.23a1.43,1.43,0,0,0,1.61-1.61V615a1.43,1.43,0,0,0-1.61-1.61Zm-76.74,21.57v-7.49h18.33V635a2,2,0,0,0-.63-.09Zm0,21.88v-8.13h17.7a2,2,0,0,0,.63-.09v8.22Z"/><path class="cls-12" d="M1111.34,613.76c.85,0,1.21.37,1.21,1.21v10.86c0,.85-.36,1.21-1.21,1.21h-21.23v8.29h18.1c.84,0,1.21.36,1.21,1.2v10.54c0,.85-.37,1.21-1.21,1.21h-18.1v8.93h22.6c.85,0,1.21.36,1.21,1.21v10.86c0,.85-.36,1.21-1.21,1.21h-36.28c-.85,0-1.21-.36-1.21-1.21V645.57l-.78,2.32-7.24,21.57a1.39,1.39,0,0,1-1.4,1h-15a1.37,1.37,0,0,1-1.39-1l-10.3-30.65-.78-2.32v10.57c0,.85-.36,1.21-1.2,1.21h-18.1v8.93h22.6c.85,0,1.21.36,1.21,1.21v10.86c0,.85-.36,1.21-1.21,1.21H995.43a1.54,1.54,0,0,1-1.5-.91l-8.68-16.66-.12-.21H981v16.57c0,.85-.36,1.21-1.21,1.21H967.35c-.84,0-1.21-.36-1.21-1.21v-4.92l-.69.73-.19.21c-.15.16-.29.32-.45.47-3.34,3.13-8.15,4.72-14.29,4.72H927.27c-.85,0-1.21-.36-1.21-1.21V615c0-.84.36-1.21,1.21-1.21h22.85c5.44,0,9.74,1.44,12.76,4.28a13.35,13.35,0,0,1,2.51,3.26l.75,1.34V615c0-.84.37-1.21,1.21-1.21h20.44c6.71,0,12,1.78,15.71,5.28l.68.64V615c0-.84.36-1.21,1.21-1.21h40.14a1.33,1.33,0,0,1,1.39,1.09l6.59,21.8c1.28,4.26,2.68,9.8,4.18,16.46l.07.32h1.12l.07-.32c1.49-6.64,2.9-12.18,4.18-16.46l6.6-21.8a1.3,1.3,0,0,1,1.38-1.09h40.23M941,635.57h6.27c3.26,0,5-1.62,5-4.67s-1.73-4.58-5-4.58H941v9.25m78.12-.24h18.18l.15,0,.61.07-.19-.59-2.53-7.52-.09-.28h-16.13v8.29m-38,4.74h6c2.4,0,4.16-.51,5.23-1.51s1.61-2.64,1.61-4.84a6.27,6.27,0,0,0-1.65-4.72c-1.1-1-2.84-1.55-5.19-1.55h-6v12.62m-14.89,2.81v-7.27l-.72,1a11.67,11.67,0,0,1-3.44,3.12l-.69.42.75.3a13.55,13.55,0,0,1,3.46,1.93l.64.5M941,657.53h8.12a5.07,5.07,0,0,0,5.47-5.55c0-2.38-1-5.23-6-5.23H941v10.78m63.23,1.5V646.89l-.66.56a19.13,19.13,0,0,1-4.24,2.72l-.4.19.23.38,4.33,7.08.74,1.21m107.16-45.67h-40.23a1.71,1.71,0,0,0-1.77,1.37l-6.6,21.8q-1.92,6.45-4.18,16.5h-.48q-2.25-10.06-4.18-16.5l-6.6-21.8a1.71,1.71,0,0,0-1.77-1.37h-40.14a1.42,1.42,0,0,0-1.61,1.61v3.78q-5.7-5.38-16-5.39H967.35a1.43,1.43,0,0,0-1.61,1.61v6.13a13.55,13.55,0,0,0-2.59-3.35q-4.67-4.38-13-4.39H927.27a1.43,1.43,0,0,0-1.61,1.61v54.31a1.43,1.43,0,0,0,1.61,1.61h23.25q9.42,0,14.56-4.83c.24-.22.44-.46.66-.69v3.91a1.43,1.43,0,0,0,1.61,1.61h12.47a1.42,1.42,0,0,0,1.61-1.61V653.11h3.46l8.69,16.65a1.92,1.92,0,0,0,1.85,1.13h46.24a1.43,1.43,0,0,0,1.61-1.61V658.42a1.43,1.43,0,0,0-1.61-1.61h-22.2v-8.13h17.7a1.41,1.41,0,0,0,1.6-1.61V639l10.3,30.65a1.77,1.77,0,0,0,1.77,1.29h15a1.77,1.77,0,0,0,1.77-1.29l7.25-21.58v21.26a1.42,1.42,0,0,0,1.61,1.61h36.28a1.43,1.43,0,0,0,1.61-1.61V658.42a1.43,1.43,0,0,0-1.61-1.61h-22.2v-8.13h17.7a1.42,1.42,0,0,0,1.61-1.61V636.53a1.42,1.42,0,0,0-1.61-1.6h-17.7v-7.49h20.83a1.42,1.42,0,0,0,1.61-1.61V615a1.42,1.42,0,0,0-1.61-1.61Zm-170,21.81v-8.45h5.87c3.06,0,4.59,1.4,4.59,4.18s-1.53,4.27-4.59,4.27Zm78.12-.24v-7.49h15.44l2.53,7.52a2.48,2.48,0,0,0-.27,0Zm-38,4.74V627.85H987c2.26,0,3.89.48,4.91,1.44a5.85,5.85,0,0,1,1.53,4.43q0,3.13-1.49,4.55t-4.95,1.4Zm-15.69,2.39a14.11,14.11,0,0,0-3.55-2,12.19,12.19,0,0,0,3.55-3.22v5.21Zm-24.39,15.07v-10h7.16q5.63,0,5.63,4.83a4.68,4.68,0,0,1-5.07,5.15Zm62.43.48-4.33-7.08a19.58,19.58,0,0,0,4.33-2.77v9.85Z"/><path class="cls-13" d="M897.22,619.44c.89,0,1.28.4,1.28,1.29V675c0,.89-.39,1.28-1.28,1.28H885c-.89,0-1.28-.39-1.28-1.28v-5.87c0-8.12.29-16.91.88-26.13l0-.28-.28-.06-.4-.08-.28-.05-.09.26c-1.5,4-4,9.86-7.31,17.27l-1.37,3a1.61,1.61,0,0,1-1.56,1h-9a1.6,1.6,0,0,1-1.55-1l-1.37-3c-3.36-7.42-5.82-13.23-7.31-17.27l-.1-.26-.27.05-.4.08-.28.06,0,.28c.58,9.24.88,18,.88,26.13V675c0,.89-.39,1.28-1.28,1.28H806.4c-.9,0-1.28-.38-1.28-1.28v-54.3c0-.89.39-1.29,1.28-1.29h47.78a1.62,1.62,0,0,1,1.56,1l5.15,10.38c2.39,4.8,4.91,10.55,7.46,17.11l.09.2h.76l.08-.2c2.56-6.56,5.07-12.32,7.47-17.11l5.15-10.39a1.61,1.61,0,0,1,1.56-1h13.76M820.15,641h18a2,2,0,0,1,.54.08l.42.12v-8.33h-19V641m0,21.89h19v-9l-.42.12a1.68,1.68,0,0,1-.54.08h-18v8.78m77.07-43.77H883.46a1.9,1.9,0,0,0-1.85,1.2l-5.15,10.38q-3.62,7.24-7.48,17.14h-.32q-3.87-9.9-7.48-17.14L856,620.32a1.92,1.92,0,0,0-1.85-1.2H806.4a1.42,1.42,0,0,0-1.61,1.61V675a1.43,1.43,0,0,0,1.61,1.61h46.25a1.43,1.43,0,0,0,1.61-1.61v-5.87q0-12.23-.89-26.15l.4-.08q2.25,6.12,7.33,17.3l1.36,3a1.91,1.91,0,0,0,1.85,1.21h9a1.9,1.9,0,0,0,1.85-1.21l1.37-3q5.07-11.19,7.32-17.3l.41.08q-.9,13.92-.89,26.15V675a1.43,1.43,0,0,0,1.61,1.61h12.23a1.43,1.43,0,0,0,1.61-1.61v-54.3a1.42,1.42,0,0,0-1.61-1.61Zm-76.74,21.56V633.2h18.33v7.57a2,2,0,0,0-.63-.09Zm0,21.88v-8.12h17.7a2.39,2.39,0,0,0,.63-.09v8.21Z"/><path class="cls-13" d="M1111.34,619.44c.89,0,1.29.4,1.29,1.29v10.86c0,.88-.4,1.28-1.29,1.28h-21.16V641h18c.88,0,1.28.4,1.28,1.29v10.54a1.11,1.11,0,0,1-1.28,1.28h-18v8.78h22.53c.89,0,1.29.39,1.29,1.28V675c0,.89-.4,1.28-1.29,1.28h-36.28c-.9,0-1.29-.38-1.29-1.28V651.78l-.63,1.89-7.24,21.57a1.45,1.45,0,0,1-1.47,1.07h-15a1.43,1.43,0,0,1-1.46-1.06l-10.3-30.66-.63-1.88v10.12a1.11,1.11,0,0,1-1.28,1.28h-18v8.78h22.53c.89,0,1.28.39,1.28,1.28V675c0,.89-.39,1.28-1.28,1.28H995.43a1.59,1.59,0,0,1-1.56-.95l-8.69-16.65-.09-.17h-4V675c0,.89-.4,1.28-1.29,1.28H967.35c-.89,0-1.28-.39-1.28-1.28V670.3l-.56.6-.2.21c-.14.16-.29.32-.45.47-3.35,3.14-8.18,4.73-14.34,4.73H927.27c-.89,0-1.28-.39-1.28-1.28v-54.3c0-.89.39-1.29,1.28-1.29h22.85c5.46,0,9.77,1.45,12.81,4.3a13.73,13.73,0,0,1,2.53,3.27l.61,1.09v-7.37c0-.89.39-1.29,1.28-1.29h20.44c6.73,0,12,1.78,15.76,5.3l.55.52v-4.53c0-.89.4-1.29,1.29-1.29h40.14a1.39,1.39,0,0,1,1.46,1.14l6.59,21.8c1.28,4.26,2.69,9.8,4.18,16.47l.06.25h1l.06-.25c1.49-6.65,2.89-12.19,4.18-16.47l6.59-21.8a1.38,1.38,0,0,1,1.46-1.14h40.23M941,641.25h6.2c3.26,0,4.91-1.55,4.91-4.59s-1.69-4.51-4.91-4.51H941v9.1m78.12-.25h18l.1,0,.13,0,.51.05-.16-.48-2.53-7.52-.07-.22h-16V641m-38,4.75H987c2.38,0,4.12-.5,5.17-1.5s1.59-2.6,1.59-4.78a6.13,6.13,0,0,0-1.63-4.66c-1.07-1-2.8-1.54-5.13-1.54h-5.87v12.48m-15,2.73V641.6l-.59.81a12,12,0,0,1-3.46,3.14l-.56.34.61.24a13.47,13.47,0,0,1,3.47,1.94l.53.41M941,663.21h8.05a5,5,0,0,0,5.4-5.48c0-3.41-2-5.15-6-5.15H941v10.63m63.08,1.31V652.8l-.53.46a19.3,19.3,0,0,1-4.26,2.73l-.32.16.19.3,4.32,7.08.6,1m107.24-45.4h-40.23a1.7,1.7,0,0,0-1.77,1.36l-6.6,21.81q-1.92,6.44-4.18,16.49h-.48q-2.25-10-4.18-16.49l-6.6-21.81a1.7,1.7,0,0,0-1.77-1.36h-40.14a1.42,1.42,0,0,0-1.61,1.61v3.77q-5.7-5.37-16-5.38H967.35a1.42,1.42,0,0,0-1.61,1.61v6.12a13.55,13.55,0,0,0-2.59-3.35q-4.67-4.38-13-4.38H927.27a1.42,1.42,0,0,0-1.61,1.61V675a1.43,1.43,0,0,0,1.61,1.61h23.25q9.42,0,14.56-4.83c.24-.22.44-.46.66-.69V675a1.43,1.43,0,0,0,1.61,1.61h12.47a1.42,1.42,0,0,0,1.61-1.61V658.86h3.46l8.69,16.65a1.9,1.9,0,0,0,1.85,1.13h46.24a1.43,1.43,0,0,0,1.61-1.61V664.17a1.43,1.43,0,0,0-1.61-1.61h-22.2v-8.12h17.7a1.42,1.42,0,0,0,1.6-1.61V644.7l10.3,30.65a1.77,1.77,0,0,0,1.77,1.29h15a1.77,1.77,0,0,0,1.77-1.29l7.25-21.58V675a1.42,1.42,0,0,0,1.61,1.61h36.28a1.43,1.43,0,0,0,1.61-1.61V664.17a1.43,1.43,0,0,0-1.61-1.61h-22.2v-8.12h17.7a1.43,1.43,0,0,0,1.61-1.61V642.29a1.42,1.42,0,0,0-1.61-1.61h-17.7V633.2h20.83a1.42,1.42,0,0,0,1.61-1.61V620.73a1.42,1.42,0,0,0-1.61-1.61Zm-170,21.8v-8.45h5.87q4.59,0,4.59,4.19t-4.59,4.26Zm78.12-.24V633.2h15.44l2.53,7.52a2.51,2.51,0,0,0-.27,0Zm-38,4.75V633.6H987c2.26,0,3.89.48,4.91,1.45a5.81,5.81,0,0,1,1.53,4.42q0,3.13-1.49,4.55T987,645.43Zm-15.69,2.39a13.8,13.8,0,0,0-3.55-2,12.08,12.08,0,0,0,3.55-3.23v5.22Zm-24.39,15.06v-10h7.16q5.63,0,5.63,4.82a4.67,4.67,0,0,1-5.07,5.15Zm62.43.48-4.33-7.07a19.61,19.61,0,0,0,4.33-2.78v9.85Z"/><path class="cls-2" d="M897.22,625.12c.94,0,1.36.42,1.36,1.36v54.3c0,.94-.42,1.36-1.36,1.36H885c-.94,0-1.36-.42-1.36-1.36v-5.87c0-8.12.3-16.91.88-26.13l0-.22-.22,0-.4-.08-.21,0-.07.2c-1.5,4-4,9.87-7.32,17.28l-1.36,3a1.67,1.67,0,0,1-1.63,1.06h-9a1.65,1.65,0,0,1-1.62-1.06l-1.37-3c-3.36-7.43-5.82-13.24-7.31-17.28l-.08-.2-.21,0-.4.08-.21,0v.22c.59,9.24.89,18,.89,26.13v5.87c0,.94-.42,1.36-1.36,1.36H806.4c-.94,0-1.36-.42-1.36-1.36v-54.3c0-.94.42-1.36,1.36-1.36h47.78a1.66,1.66,0,0,1,1.62,1.07L861,636.57c2.4,4.8,4.92,10.56,7.47,17.11l.07.16h.66l.06-.16c2.56-6.56,5.08-12.32,7.48-17.11l5.15-10.39a1.66,1.66,0,0,1,1.62-1.06h13.76m-77,21.56h17.95a2.16,2.16,0,0,1,.56.08l.32.09V638.7H820.23v8m0,21.88h18.83v-8.79l-.32.09a2.16,2.16,0,0,1-.56.08H820.23v8.62m77-43.69H883.46a1.9,1.9,0,0,0-1.85,1.21l-5.15,10.37q-3.62,7.24-7.48,17.14h-.32q-3.87-9.9-7.48-17.14L856,626.08a1.92,1.92,0,0,0-1.85-1.21H806.4a1.43,1.43,0,0,0-1.61,1.61v54.3a1.42,1.42,0,0,0,1.61,1.61h46.25a1.42,1.42,0,0,0,1.61-1.61v-5.87q0-12.23-.89-26.15l.4-.08Q856,654.8,861.1,666l1.36,3a1.91,1.91,0,0,0,1.85,1.2h9a1.9,1.9,0,0,0,1.85-1.2l1.37-3q5.07-11.18,7.32-17.3l.41.08q-.9,13.92-.89,26.15v5.87a1.42,1.42,0,0,0,1.61,1.61h12.23a1.42,1.42,0,0,0,1.61-1.61v-54.3a1.43,1.43,0,0,0-1.61-1.61Zm-76.74,21.56V639h18.33v7.57a2.39,2.39,0,0,0-.63-.09Zm0,21.88v-8.12h17.7a2.39,2.39,0,0,0,.63-.09v8.21Z"/><path class="cls-2" d="M1111.34,625.12c.94,0,1.36.42,1.36,1.36v10.86c0,.94-.42,1.36-1.36,1.36h-21.08v8h18c.94,0,1.36.42,1.36,1.36v10.54c0,.94-.42,1.36-1.36,1.36h-18v8.62h22.45c.94,0,1.36.42,1.36,1.36v10.86c0,.94-.42,1.36-1.36,1.36h-36.28c-.94,0-1.36-.42-1.36-1.36V658l-.49,1.45L1067.34,681a1.54,1.54,0,0,1-1.54,1.12h-15a1.54,1.54,0,0,1-1.54-1.11L1039,650.37l-.49-1.45v9.66c0,.94-.42,1.36-1.35,1.36h-18v8.62h22.45c.94,0,1.36.42,1.36,1.36v10.86c0,.94-.42,1.36-1.36,1.36H995.43a1.67,1.67,0,0,1-1.63-1l-8.69-16.65-.07-.14h-3.86v16.42c0,.94-.42,1.36-1.36,1.36H967.35c-.94,0-1.36-.42-1.36-1.36v-4.54l-.43.46-.19.21c-.15.16-.3.32-.46.47-3.37,3.16-8.21,4.76-14.39,4.76H927.27c-.94,0-1.36-.42-1.36-1.36v-54.3c0-.94.42-1.36,1.36-1.36h22.85c5.48,0,9.81,1.45,12.86,4.32a13.47,13.47,0,0,1,2.55,3.29l.46.84v-7.09c0-.94.42-1.36,1.36-1.36h20.44c6.75,0,12.07,1.79,15.82,5.32l.42.39v-4.35c0-.94.42-1.36,1.36-1.36h40.14a1.46,1.46,0,0,1,1.53,1.19l6.6,21.8c1.27,4.26,2.68,9.81,4.17,16.48l.05.19h.88l0-.19c1.48-6.66,2.89-12.2,4.17-16.48l6.6-21.8a1.46,1.46,0,0,1,1.53-1.19h40.23M941.1,646.92h6.12c3.21,0,4.84-1.52,4.84-4.51s-1.63-4.44-4.84-4.44H941.1v8.95m78.12-.24h18l.11,0,.13,0,.39,0-.13-.37-2.52-7.52-.06-.17h-15.87v8m-38,4.75H987c2.36,0,4.09-.5,5.12-1.48s1.57-2.57,1.57-4.73a6.07,6.07,0,0,0-1.61-4.6c-1.06-1-2.77-1.52-5.08-1.52h-5.8v12.33M966,654.08v-6.5l-.45.62a12,12,0,0,1-3.48,3.17l-.43.26.47.18a14.11,14.11,0,0,1,3.49,2l.4.32M941.1,668.89h8a5.4,5.4,0,0,0,3.88-1.4,5.34,5.34,0,0,0,1.44-4c0-3.37-2-5.08-5.88-5.08H941.1v10.48M1004,670V658.72l-.41.35a19,19,0,0,1-4.27,2.74l-.26.12.15.24,4.32,7.07.47.76m107.31-45.13h-40.23a1.71,1.71,0,0,0-1.77,1.37l-6.6,21.8q-1.92,6.44-4.18,16.49h-.48q-2.25-10-4.18-16.49l-6.6-21.8a1.71,1.71,0,0,0-1.77-1.37h-40.14a1.42,1.42,0,0,0-1.61,1.61v3.78q-5.7-5.38-16-5.39H967.35a1.43,1.43,0,0,0-1.61,1.61v6.13a13.6,13.6,0,0,0-2.59-3.36q-4.67-4.38-13-4.38H927.27a1.43,1.43,0,0,0-1.61,1.61v54.3a1.42,1.42,0,0,0,1.61,1.61h23.25q9.42,0,14.56-4.82c.24-.22.44-.47.66-.7v3.91a1.42,1.42,0,0,0,1.61,1.61h12.47a1.42,1.42,0,0,0,1.61-1.61V664.61h3.46l8.69,16.66a1.91,1.91,0,0,0,1.85,1.12h46.24a1.42,1.42,0,0,0,1.61-1.61V669.92a1.43,1.43,0,0,0-1.61-1.61h-22.2v-8.12h17.7a1.42,1.42,0,0,0,1.6-1.61v-8.13l10.3,30.66a1.77,1.77,0,0,0,1.77,1.28h15a1.77,1.77,0,0,0,1.77-1.28l7.25-21.59v21.26a1.42,1.42,0,0,0,1.61,1.61h36.28a1.42,1.42,0,0,0,1.61-1.61V669.92a1.43,1.43,0,0,0-1.61-1.61h-22.2v-8.12h17.7a1.43,1.43,0,0,0,1.61-1.61V648a1.43,1.43,0,0,0-1.61-1.61h-17.7V639h20.83a1.42,1.42,0,0,0,1.61-1.61V626.48a1.42,1.42,0,0,0-1.61-1.61Zm-170,21.8v-8.45h5.87q4.59,0,4.59,4.19t-4.59,4.26Zm78.12-.24V639h15.44l2.53,7.52a2.51,2.51,0,0,0-.27,0Zm-38,4.75V639.35H987c2.26,0,3.89.48,4.91,1.45a5.83,5.83,0,0,1,1.53,4.42c0,2.1-.5,3.61-1.49,4.55s-2.64,1.41-4.95,1.41Zm-15.69,2.39a13.8,13.8,0,0,0-3.55-2,12.08,12.08,0,0,0,3.55-3.23v5.22Zm-24.39,15.07v-10h7.16q5.63,0,5.63,4.83a4.68,4.68,0,0,1-5.07,5.15Zm62.43.47L999.45,662a19.25,19.25,0,0,0,4.33-2.78v9.85Z"/></g><path class="cls-14" d="M820.48,602.66v8.13h22.2a1.42,1.42,0,0,1,1.61,1.61v10.86a1.42,1.42,0,0,1-1.61,1.61H806.4a1.43,1.43,0,0,1-1.61-1.61V569a1.42,1.42,0,0,1,1.61-1.61h34.92a1.41,1.41,0,0,1,1.6,1.61v10.86a1.42,1.42,0,0,1-1.6,1.61H820.48v7.48h17.7a1.42,1.42,0,0,1,1.61,1.61v10.54a1.42,1.42,0,0,1-1.61,1.6Z"/><path class="cls-4" d="M852.65,624.87H840.42a1.43,1.43,0,0,1-1.61-1.61V569a1.42,1.42,0,0,1,1.61-1.61h13.76a1.92,1.92,0,0,1,1.85,1.2l5.15,10.38q3.62,7.25,7.48,17.14H869q3.85-9.9,7.48-17.14l5.15-10.38a1.91,1.91,0,0,1,1.85-1.2h13.76a1.42,1.42,0,0,1,1.61,1.61v54.3a1.43,1.43,0,0,1-1.61,1.61H885a1.43,1.43,0,0,1-1.61-1.61v-5.87q0-12.23.89-26.15l-.41-.08q-2.25,6.12-7.32,17.3l-1.37,3a1.9,1.9,0,0,1-1.85,1.21h-9a1.91,1.91,0,0,1-1.85-1.21l-1.36-3q-5.07-11.19-7.33-17.3l-.4.08q.89,13.92.89,26.15v5.87A1.43,1.43,0,0,1,852.65,624.87Z"/><path class="cls-15" d="M967.82,584a11.12,11.12,0,0,1-5.63,10.06q8,3.13,8,12.47,0,8.69-5.15,13.51t-14.56,4.83H927.27a1.43,1.43,0,0,1-1.61-1.61V569a1.42,1.42,0,0,1,1.61-1.61h22.85q8.37,0,13,4.38T967.82,584Zm-16,.88c0-2.78-1.53-4.18-4.59-4.18h-5.87v8.45h5.87Q951.81,589.15,951.81,584.88Zm-10.46,26.23h7.72a4.68,4.68,0,0,0,5.07-5.15q0-4.82-5.63-4.82h-7.16Z"/><path class="cls-16" d="M1009.67,624.87H995.43a1.92,1.92,0,0,1-1.85-1.13l-8.69-16.65h-3.46v16.17a1.43,1.43,0,0,1-1.61,1.61H967.35a1.43,1.43,0,0,1-1.61-1.61V569a1.42,1.42,0,0,1,1.61-1.61h20.44q10.38,0,16.09,5.47t5.71,14.8q0,12.07-10.14,16.89l11.27,18.43a1.42,1.42,0,0,1,.2,1.37A1.28,1.28,0,0,1,1009.67,624.87Zm-22.69-43h-5.55v11.82H987q3.46,0,4.95-1.4t1.49-4.55a5.81,5.81,0,0,0-1.53-4.42C990.87,582.31,989.24,581.83,987,581.83Z"/><path class="cls-17" d="M1019.47,602.66v8.13h22.2a1.43,1.43,0,0,1,1.61,1.61v10.86a1.43,1.43,0,0,1-1.61,1.61h-36.28a1.42,1.42,0,0,1-1.61-1.61V569a1.42,1.42,0,0,1,1.61-1.61h34.91a1.42,1.42,0,0,1,1.61,1.61v10.86a1.42,1.42,0,0,1-1.61,1.61h-20.83v7.48h17.7a1.41,1.41,0,0,1,1.6,1.61v10.54a1.41,1.41,0,0,1-1.6,1.6Z"/><path class="cls-18" d="M1065.8,624.87h-15a1.77,1.77,0,0,1-1.77-1.29l-18.26-54.38c-.43-1.24,0-1.85,1.28-1.85h13.44a1.7,1.7,0,0,1,1.77,1.36l6.6,21.81q1.92,6.43,4.18,16.49h.48q2.25-10.05,4.18-16.49l6.6-21.81a1.7,1.7,0,0,1,1.77-1.36h13.44c1.28,0,1.71.61,1.28,1.85l-18.26,54.38A1.77,1.77,0,0,1,1065.8,624.87Z"/><path class="cls-4" d="M1090.51,602.66v8.13h22.2a1.43,1.43,0,0,1,1.61,1.61v10.86a1.43,1.43,0,0,1-1.61,1.61h-36.28a1.42,1.42,0,0,1-1.61-1.61V569a1.42,1.42,0,0,1,1.61-1.61h34.91A1.42,1.42,0,0,1,1113,569v10.86a1.42,1.42,0,0,1-1.61,1.61h-20.83v7.48h17.7a1.42,1.42,0,0,1,1.61,1.61v10.54a1.42,1.42,0,0,1-1.61,1.6Z"/><g class="cls-19"><rect class="cls-20" x="797.12" y="672.5" width="335.79" height="189.02"/></g><g class="cls-21"><rect class="cls-22" x="825.21" y="673.22" width="270.49" height="187.75"/></g><g class="cls-23"><rect class="cls-24" x="949.24" y="731.45" width="57.53" height="45.03"/></g><text class="cls-25" transform="translate(707.3 925.71)">Pgina em <tspan class="cls-26" x="237.61" y="0">c</tspan><tspan x="260.95" y="0">onstru</tspan><tspan class="cls-27" x="450.66" y="0">o</tspan><tspan x="477.04" y="0">..</tspan><tspan class="cls-28" x="496.13" y="0">.</tspan></text></svg>